<svg id="Layer_1" data-name="Layer 1" xmlns="http://www.w3.org/2000/svg" viewBox="0 0 64 64"><path d="M8.8,20.192V23.6a4.2,4.2,0,0,0,8.4,0V20.192A8.2,8.2,0,0,0,12.747,4.961,8.252,8.252,0,0,0,4.8,13.188,8.145,8.145,0,0,0,8.8,20.192ZM15.2,23.6a2.2,2.2,0,0,1-4.4,0V22.2h4.4ZM12.808,6.961c.064,0,.129,0,.193,0A6.195,6.195,0,0,1,15.755,18.7a1,1,0,0,0-.555.9v.6H10.8v-.6a1,1,0,0,0-.555-.9A6.166,6.166,0,0,1,6.8,13.18,6.315,6.315,0,0,1,12.808,6.961Z" id="id_119" style="fill: rgb(255, 255, 255);"></path><rect x="12" y="1.2" width="2" height="2.399" id="id_120" style="fill: rgb(255, 255, 255);"></rect><rect x="1" y="12.2" width="2.4" height="2" id="id_121" style="fill: rgb(255, 255, 255);"></rect><rect x="22.6" y="12.2" width="2.4" height="2" id="id_122" style="fill: rgb(255, 255, 255);"></rect><rect x="4.363" y="4.363" width="2" height="2.4" transform="translate(-2.363 5.422) rotate(-45)" id="id_123" style="fill: rgb(255, 255, 255);"></rect><rect x="19.637" y="19.637" width="2" height="2.4" transform="translate(-8.69 20.695) rotate(-45)" id="id_124" style="fill: rgb(255, 255, 255);"></rect><rect x="4.163" y="19.837" width="2.4" height="2" transform="translate(-13.163 9.895) rotate(-45)" id="id_125" style="fill: rgb(255, 255, 255);"></rect><rect x="19.437" y="4.564" width="2.4" height="2" transform="translate(2.11 16.222) rotate(-45)" id="id_126" style="fill: rgb(255, 255, 255);"></rect><path d="M53,43A10,10,0,1,0,63,53,10.011,10.011,0,0,0,53,43Zm0,18a8,8,0,1,1,8-8A8.009,8.009,0,0,1,53,61Z" id="id_127" style="fill: rgb(255, 255, 255);"></path><path d="M52.25,50h1.5A1.147,1.147,0,0,1,55,51h2a3.1,3.1,0,0,0-3-2.977V47H52v1.023A3.1,3.1,0,0,0,49,51a3.136,3.136,0,0,0,3.25,3h1.5a1.025,1.025,0,1,1,0,2h-1.5A1.162,1.162,0,0,1,51,55H49a3.1,3.1,0,0,0,3,2.977V59h2V57.977A3.1,3.1,0,0,0,57,55a3.136,3.136,0,0,0-3.25-3h-1.5a1.025,1.025,0,1,1,0-2Z" id="id_128" style="fill: rgb(255, 255, 255);"></path><rect x="28" y="25" width="12" height="2" id="id_129" style="fill: rgb(255, 255, 255);"></rect><rect x="24" y="25" width="2" height="2" id="id_130" style="fill: rgb(255, 255, 255);"></rect><rect x="28" y="32" width="12" height="2" id="id_131" style="fill: rgb(255, 255, 255);"></rect><rect x="24" y="32" width="2" height="2" id="id_132" style="fill: rgb(255, 255, 255);"></rect><rect x="28" y="39" width="12" height="2" id="id_133" style="fill: rgb(255, 255, 255);"></rect><rect x="24" y="39" width="2" height="2" id="id_134" style="fill: rgb(255, 255, 255);"></rect><path d="M53,33a1,1,0,0,0-.857,1.515l3,5a1,1,0,0,0,1.714,0l3-5A1,1,0,0,0,59,33H56.979c.014-.342.021-.674.021-1A25.019,25.019,0,0,0,26.792,7.544L27.208,9.5A23.016,23.016,0,0,1,55,32c0,.324-.009.657-.023,1Zm4.233,2L56,37.057,54.767,35Z" id="id_135" style="fill: rgb(255, 255, 255);"></path><path d="M40,56a1,1,0,0,0-.485-.857l-5-3A1,1,0,0,0,33,53v1.955c-.332.016-.662.045-1,.045A23.025,23.025,0,0,1,9,32c0-.644.026-1.289.078-1.917l-1.992-.166C7.028,30.6,7,31.3,7,32A25.028,25.028,0,0,0,32,57c.338,0,.668-.031,1-.045V59a1,1,0,0,0,1.515.857l5-3A1,1,0,0,0,40,56Zm-5,1.233V54.767L37.057,56Z" id="id_136" style="fill: rgb(255, 255, 255);"></path></svg>