<svg xmlns="http://www.w3.org/2000/svg" xml:space="preserve" width="1.70666in" height="1.70666in" style="shape-rendering:geometricPrecision; text-rendering:geometricPrecision; image-rendering:optimizeQuality; fill-rule:evenodd; clip-rule:evenodd" viewBox="0 0 1.70666 1.70666" xmlns:xlink="http://www.w3.org/1999/xlink">
 <defs>
  <style type="text/css">
   
    .fil0 {fill:#8DD7BE}
    .fil2 {fill:#EE52B1}
    .fil1 {fill:#F6A40E}
   
  </style>
 </defs>
 <g id="Layer_x0020_1">
  <metadata id="CorelCorpID_0Corel-Layer"></metadata>
  <path class="fil0" d="M0.853331 0.964551c-0.178264,0 -0.323295,-0.145028 -0.323295,-0.323291 0,-0.178268 0.145031,-0.323295 0.323295,-0.323295 0.17826,0 0.323295,0.145028 0.323295,0.323291 0,0.178264 -0.145031,0.323295 -0.323295,0.323295zm0 -0.613252c-0.159886,0 -0.289961,0.130075 -0.289961,0.289961 0,0.159882 0.130075,0.289957 0.289961,0.289957 0.159886,0 0.289965,-0.130079 0.289965,-0.289961 0,-0.159882 -0.130075,-0.289957 -0.289965,-0.289957z" id="id_115" style="fill: rgb(250, 254, 255);"></path>
  <path class="fil1" d="M0.853335 1.16708c-0.0486457,0 -0.0897244,-0.0299134 -0.104654,-0.0762008 -0.0102559,-0.0317953 -0.0396339,-0.0531535 -0.0730984,-0.0531535 -0.0142756,0 -0.0283071,0.00407087 -0.0405787,0.0117717 -0.0179882,0.0112992 -0.0382047,0.0172795 -0.0584646,0.0172835 0,0 -1.1811e-005,0 -1.1811e-005,0 -0.0360394,0 -0.0712362,-0.0190394 -0.0918622,-0.049685 -0.0204134,-0.0303268 -0.0240591,-0.0675551 -0.0100039,-0.10213 0.00897244,-0.022063 0.00728346,-0.0465472 -0.00462205,-0.0671693 -0.0119094,-0.020626 -0.0322677,-0.0343307 -0.0558622,-0.0375945 -0.048185,-0.00666535 -0.0847756,-0.0419291 -0.0932205,-0.0898307 -0.00844488,-0.0479055 0.0138819,-0.0935512 0.056878,-0.116295 0.0210512,-0.0111378 0.0355,-0.0309764 0.0396378,-0.0544331 0.00412992,-0.0234567 -0.00265748,-0.0470354 -0.0186339,-0.0647008 -0.0295827,-0.0327205 -0.0369213,-0.0779331 -0.0191339,-0.117988 0.0177756,-0.0400354 0.0568228,-0.0659055 0.0994764,-0.0659055 0.00801575,0 0.0161969,0.00088189 0.024315,0.00262598 0.00540157,0.00116142 0.0108898,0.00174803 0.016311,0.00174803 0.0205472,0 0.0406063,-0.00859055 0.0550433,-0.0235709 0.0145236,-0.0150709 0.0220984,-0.0349409 0.0213189,-0.055937 -0.00112598,-0.0304094 0.00947638,-0.0588031 0.0298622,-0.0799488 0.021,-0.0218031 0.0505315,-0.0343031 0.0810079,-0.0343031 0.0339409,0 0.0644213,0.0151496 0.0858189,0.0426614 0.014622,0.0187992 0.0366693,0.0295827 0.0604882,0.0295827 0.023815,0 0.0458583,-0.0107835 0.0604803,-0.0295827 0.0214016,-0.0275118 0.051878,-0.0426614 0.0858228,-0.0426614 0.0304803,0 0.0600039,0.0125 0.0810079,0.0342992 0.0203819,0.0211496 0.0309882,0.0495433 0.0298583,0.0799528 -0.000775591,0.0209961 0.00679528,0.0408622 0.0213228,0.055937 0.0144331,0.0149803 0.0344961,0.0235709 0.0550394,0.0235709 0.0054252,0 0.0109094,-0.000590551 0.016315,-0.00174803 0.00811811,-0.00174409 0.0162953,-0.00262598 0.024315,-0.00262598 0.0426575,0 0.0817087,0.0258701 0.0994882,0.0659055 0.0177795,0.0400512 0.0104449,0.0852638 -0.0191457,0.11798 -0.0159764,0.0176693 -0.0227638,0.041252 -0.0186339,0.0647087 0.0041378,0.0234567 0.0185827,0.0432953 0.0396339,0.0544331 0.0429961,0.0227402 0.0653268,0.0683898 0.0568819,0.116291 -0.00844882,0.0479055 -0.0450394,0.0831693 -0.0932244,0.0898346 -0.0235906,0.00326378 -0.0439567,0.0169646 -0.0558661,0.0375945 -0.0119055,0.020626 -0.0135906,0.0451063 -0.00462598,0.0671693 0.0140591,0.0345709 0.0104094,0.0717874 -0.00999606,0.102114 -0.020626,0.0306535 -0.0558307,0.0496969 -0.091874,0.0497008 -0.020252,0 -0.0404724,-0.00597244 -0.0584685,-0.0172756 -0.0122717,-0.00770866 -0.0263031,-0.0117795 -0.0405787,-0.0117795 -0.0334646,0 -0.0628465,0.0213622 -0.0731024,0.0531535 -0.0149449,0.0462874 -0.0560197,0.0762008 -0.104661,0.0762008zm-0.177752 -0.162693c0.0479843,0 0.0901102,0.0306417 0.104823,0.0762559 0.0126299,0.0391535 0.0459528,0.0531063 0.0729291,0.0531063 0.0269764,0 0.0602953,-0.0139528 0.0729252,-0.0531063 0.0147165,-0.0456142 0.0568425,-0.0762559 0.104823,-0.0762559 0.0205551,0 0.0407126,0.00583465 0.0583031,0.016874 0.0128622,0.00808268 0.0265709,0.0121772 0.0407402,0.0121772 0.0250984,0 0.0497087,-0.0134016 0.0642244,-0.0349724 0.0143189,-0.0212756 0.0167244,-0.0464724 0.00677165,-0.0709528 -0.0128701,-0.0316575 -0.0104528,-0.0667874 0.0066378,-0.0963898 0.0170866,-0.0295984 0.0463071,-0.0492638 0.0801614,-0.0539488 0.0407559,-0.00564173 0.0602795,-0.0360354 0.0649646,-0.0626024 0.0046811,-0.026563 -0.00326772,-0.0618031 -0.0396378,-0.0810394 -0.0302087,-0.0159843 -0.0509409,-0.0444528 -0.056878,-0.0781102 -0.00592913,-0.0336575 0.00381496,-0.0675 0.0267362,-0.0928465 0.020937,-0.0231535 0.0259488,-0.0538465 0.0134055,-0.0821063 -0.012622,-0.0284331 -0.0390709,-0.0460984 -0.0690157,-0.0460984 -0.00566929,0 -0.0114961,0.000633858 -0.0173189,0.00188189 -0.00769291,0.00165354 -0.0155394,0.00249213 -0.023311,0.00249213 -0.0295472,0 -0.0583583,-0.0123071 -0.0790433,-0.0337756 -0.0208661,-0.0216535 -0.0317441,-0.0501732 -0.030626,-0.0803031 0.00101181,-0.0272677 -0.0106181,-0.0452795 -0.0205512,-0.0555866 -0.0147559,-0.015315 -0.0355315,-0.0240945 -0.0570039,-0.0240945 -0.0234291,0 -0.044563,0.0105787 -0.0595118,0.0297913 -0.0209843,0.0269764 -0.0526181,0.0424488 -0.0867953,0.0424488 -0.0341772,0 -0.065811,-0.0154764 -0.0867992,-0.0424488 -0.0149449,-0.0192126 -0.0360787,-0.0297913 -0.0595039,-0.0297913 -0.0214724,0 -0.042252,0.00878346 -0.0570079,0.0240945 -0.00993307,0.010311 -0.021563,0.0283268 -0.0205551,0.0555866 0.00111417,0.0301299 -0.00975984,0.0586496 -0.030626,0.0803031 -0.020685,0.0214646 -0.0494961,0.0337756 -0.0790433,0.0337756 -0.00777559,0 -0.0156181,-0.000838583 -0.023311,-0.00249213 -0.00582283,-0.00124803 -0.0116457,-0.00188189 -0.017315,-0.00188189 -0.0299449,0 -0.0563898,0.0176654 -0.0690118,0.0461024 -0.0125472,0.0282559 -0.00753937,0.0589528 0.0133937,0.0820984 0.0229252,0.0253465 0.0326693,0.0591929 0.0267362,0.0928504 -0.00593307,0.0336575 -0.0266693,0.0621299 -0.056878,0.0781102 -0.0363661,0.0192362 -0.044315,0.0544764 -0.0396339,0.0810394 0.00468504,0.0265669 0.0242126,0.0569606 0.0649646,0.0626024 0.0338543,0.00468504 0.0630709,0.0243504 0.0801575,0.0539488 0.0170906,0.0295984 0.0195079,0.0647283 0.0066378,0.0963898 -0.00995276,0.0244843 -0.00754724,0.049685 0.00677559,0.0709685 0.0145157,0.0215669 0.039122,0.0349606 0.0642165,0.0349567 0.0141772,0 0.0278858,-0.00409843 0.040748,-0.0121654 0.0175787,-0.0110472 0.0377402,-0.0168858 0.0583031,-0.0168858z" id="id_116" style="fill: rgb(255, 255, 255);"></path>
  <path class="fil1" d="M1.45411 0.529055c-0.00426378,0 -0.0085315,-0.00162598 -0.0117835,-0.00487795 -0.00650787,-0.00651181 -0.00650787,-0.017063 -3.93701e-006,-0.0235709l0.0975945 -0.0976024c0.00651181,-0.00650787 0.0170669,-0.00651181 0.0235709,0 0.00650787,0.00650787 0.00650787,0.017063 3.93701e-006,0.0235709l-0.0975945 0.0976024c-0.00325197,0.00324803 -0.00751969,0.00487795 -0.0117874,0.00487795z" id="id_117" style="fill: rgb(255, 255, 255);"></path>
  <path class="fil1" d="M1.55171 0.881882c-0.00426772,0 -0.0085315,-0.00162598 -0.0117874,-0.00488189l-0.0975984 -0.0976024c-0.00650394,-0.00651181 -0.00650394,-0.017063 3.93701e-006,-0.0235709 0.00650394,-0.00651575 0.0170591,-0.00650787 0.0235709,0l0.0975945 0.0976063c0.00650787,0.00650787 0.00650787,0.017063 -3.93701e-006,0.0235709 -0.00324803,0.00325197 -0.00751575,0.00487795 -0.0117795,0.00487795z" id="id_118" style="fill: rgb(255, 255, 255);"></path>
  <path class="fil1" d="M1.68999 0.656669l-0.213591 0c-0.00920866,0 -0.0166693,-0.00746063 -0.0166693,-0.0166654 0,-0.00920866 0.00746063,-0.0166693 0.0166693,-0.0166693l0.213591 0c0.00920472,0 0.0166654,0.00746063 0.0166654,0.0166654 0,0.00920866 -0.00746063,0.0166693 -0.0166654,0.0166693z" id="id_119" style="fill: rgb(255, 255, 255);"></path>
  <path class="fil1" d="M0.252555 0.527795c-0.00426378,0 -0.00852756,-0.00162598 -0.0117874,-0.00487795l-0.0976024 -0.0976063c-0.00650787,-0.00650787 -0.00650787,-0.017063 0,-0.0235709 0.00651181,-0.00650787 0.017063,-0.00650787 0.0235709,0l0.0976024 0.0976063c0.00651181,0.00650787 0.00651181,0.017063 0,0.0235709 -0.00325197,0.00325197 -0.00751969,0.00487795 -0.0117835,0.00487795z" id="id_120" style="fill: rgb(255, 255, 255);"></path>
  <path class="fil1" d="M0.154953 0.880618c-0.00426772,0 -0.00852756,-0.00162598 -0.0117874,-0.00487795 -0.00650787,-0.00651181 -0.00650787,-0.017063 0,-0.0235748l0.0976024 -0.0976024c0.00650787,-0.00650787 0.017063,-0.00650787 0.0235709,0 0.00651181,0.00650787 0.00651181,0.017063 0,0.0235709l-0.0976024 0.0976063c-0.00325197,0.00325197 -0.00751575,0.00487795 -0.0117835,0.00487795z" id="id_121" style="fill: rgb(255, 255, 255);"></path>
  <path class="fil1" d="M0.230268 0.655406l-0.213594 0c-0.00920866,0 -0.0166654,-0.00746063 -0.0166654,-0.0166654 0,-0.00920866 0.00745669,-0.0166693 0.0166654,-0.0166693l0.213598 0c0.00920472,0 0.0166654,0.00746063 0.0166654,0.0166693 0,0.00920472 -0.00746457,0.0166654 -0.0166693,0.0166654z" id="id_122" style="fill: rgb(247, 247, 247);"></path>
  <path class="fil1" d="M0.741165 1.45725c-0.00605906,0 -0.0116929,-0.00330315 -0.0146299,-0.00868898l-0.0789685 -0.144909 -0.152594 0.0591732c-0.0061811,0.0023937 -0.0132047,0.000901575 -0.0178661,-0.00381496 -0.00466929,-0.00471654 -0.00609449,-0.011748 -0.00362992,-0.0179094l0.121406 -0.303827c0.00341339,-0.00855118 0.0131142,-0.0127126 0.0216614,-0.00929528 0.00854724,0.00341732 0.0127126,0.0131181 0.00929528,0.0216654l-0.107189 0.268252 0.130528 -0.0506142c0.00779528,-0.0030315 0.0166535,0.000208661 0.0206614,0.00756693l0.0679016 0.124598 0.0880394 -0.255185c0.003,-0.00870079 0.0125,-0.013315 0.0211929,-0.0103189 0.00870079,0.00299606 0.0133228,0.0124882 0.0103189,0.021189l-0.100358 0.29089c-0.00215354,0.00624016 -0.0077874,0.010626 -0.0143661,0.0111732 -0.000476378,3.54331e-005 -0.000940945,5.51181e-005 -0.00140157,5.51181e-005z" id="id_123" style="fill: rgb(250, 250, 250);"></path>
  <path class="fil1" d="M1.0147 1.595c-0.000397638,0 -0.000799213,-1.5748e-005 -0.00119685,-4.33071e-005 -0.00648425,-0.000468504 -0.0121102,-0.00466142 -0.0144016,-0.0107441l-0.161358 -0.427917c-0.00324803,-0.00861417 0.00110236,-0.0182323 0.00971654,-0.0214764 0.00861024,-0.00324803 0.0182244,0.00110236 0.0214764,0.0097126l0.148614 0.394126 0.0770118 -0.139575c0.00400394,-0.00725984 0.0127323,-0.0104685 0.0204882,-0.00754331l0.142835 0.0539567 -0.144665 -0.38961c-0.00320472,-0.00862992 0.00119291,-0.0182244 0.00982283,-0.0214252 0.00862205,-0.00320079 0.0182244,0.00119291 0.0214252,0.00982283l0.157417 0.423953c0.00227953,0.00612205 0.000759843,0.0130118 -0.00387008,0.0176181 -0.00462992,0.00460236 -0.0115236,0.00607874 -0.0176457,0.00377165l-0.163591 -0.0617992 -0.0874764 0.158551c-0.00296063,0.00534252 -0.00856299,0.00862205 -0.0146024,0.00862205z" id="id_124" style="fill: rgb(255, 255, 255);"></path>
  <path class="fil2" d="M0.784087 0.745484c-0.000877953,0 -0.00175984,-7.08661e-005 -0.00264173,-0.000212598 -0.00527953,-0.000846457 -0.00983071,-0.00417323 -0.0122402,-0.00894882l-0.0403898 -0.0800748c-0.00414567,-0.00821654 -0.00084252,-0.0182441 0.00737402,-0.0223858 0.00821654,-0.00414567 0.0182402,-0.00084252 0.0223858,0.00737402l0.0300157 0.0595039 0.162591 -0.162598c0.00650787,-0.00650787 0.0170669,-0.00651181 0.0235709,0 0.00650787,0.00650787 0.00650787,0.017063 3.93701e-006,0.0235669l-0.178886 0.178894c-0.00314567,0.00314961 -0.00740157,0.00488189 -0.0117835,0.00488189z" id="id_125" style="fill: rgb(250, 254, 255);"></path>
  <path class="fil2" d="M0.853335 0.880047c-0.131669,0 -0.238791,-0.107118 -0.238791,-0.238787 0,-0.131673 0.107118,-0.238791 0.238791,-0.238791 0.131669,0 0.238787,0.107118 0.238787,0.238791 0,0.131669 -0.107118,0.238787 -0.238787,0.238787zm0 -0.444248c-0.113291,0 -0.205461,0.0921693 -0.205461,0.205461 0,0.113287 0.0921693,0.205457 0.205461,0.205457 0.113283,0 0.205453,-0.0921693 0.205453,-0.205457 0,-0.113291 -0.0921693,-0.205461 -0.205453,-0.205461z" id="id_126" style="fill: rgb(252, 255, 255);"></path>
 </g>
</svg>