<svg version="1.1" id="Capa_1" xmlns="http://www.w3.org/2000/svg" xmlns:xlink="http://www.w3.org/1999/xlink" x="0px" y="0px" viewBox="0 0 480 480" style="enable-background:new 0 0 480 480;" xml:space="preserve">
<style type="text/css">
	.st0{fill:url(#SVGID_1_);}
</style>
<linearGradient id="SVGID_1_" gradientUnits="userSpaceOnUse" x1="0" y1="240" x2="480" y2="240">
	<stop offset="0" style="stop-color: rgb(9, 30, 62);" id="id_105"></stop>
	<stop offset="1" style="stop-color: rgb(255, 180, 0);" id="id_106"></stop>
</linearGradient>
<path class="st0" d="M219.4,124l20.6,56.6l20.6-56.6H219.4z M196,92l-12,16h20.7l16-16H196z M202.4,124H184l35.7,47.6L202.4,124z
	 M240,95.3L227.3,108h25.4L240,95.3z M36.7,338.6L8,367.3L116.7,476l28.7-28.7L36.7,338.6z M47,389l-24-24l11.3-11.3l24,24L47,389z
	 M458.9,266.5c-3.8-4.1-9.1-6.5-14.7-6.5h-1.7c-4.8,0-9.5,1.8-13.1,5l-64.1,57c-1.5,1.3-3.4,2-5.3,2l-89.1-16l46.8-12.8
	c8.6-2.3,13.7-11.2,11.4-19.8s-11.2-13.7-19.8-11.4c-0.3,0.1-0.6,0.2-0.9,0.3l-81.8,27.3c-0.8,0.3-1.7,0.4-2.5,0.4H107.3l-40.9,52.7
	l85.6,85.6l59.4-56.8c1.4-1,3-1.5,4.6-1.5h156.9l84.7-77.6C465.7,287,466.3,274.5,458.9,266.5z M277.6,124l-17.3,47.6L296,124H277.6
	z M284,92h-24.7l16,16H296L284,92z M408,28V12h-16v16h-16v16h16v16h16V44h16V28H408z M464,4h16v16h-16V4z M400,92h16v16h-16V92z
	 M88,100V84H72v16H56v16h16v16h16v-16h16v-16H88z M0,44h16v16H0V44z M72,4h16v16H72V4z M336,228V68c0-4.4-3.6-8-8-8h-59.3
	C285.6,49.9,296,31.7,296,12c0-4.4-3.6-8-8-8c-19.7,0-37.9,10.4-48,27.3C229.9,14.4,211.7,4,192,4c-4.4,0-8,3.6-8,8
	c0,19.7,10.4,37.9,27.3,48H152c-4.4,0-8,3.6-8,8v160H0v32h480v-32H336z M318.4,120.8L256,204c-3.8,5-9.7,8-16,8s-12.2-3-16-8
	l-62.4-83.2c-2.1-2.8-2.1-6.8,0-9.6l24-32c1.5-2,3.9-3.2,6.4-3.2h96c2.5,0,4.9,1.2,6.4,3.2l24,32C320.5,114,320.5,118,318.4,120.8z" id="id_104"></path>
</svg>